{
    "asset" : {
        "generator" : "Khronos glTF Blender I/O v1.8.6",
        "version" : "2.0"
    },
    "scene" : 1,
    "scenes" : [
        {
            "name" : "Scene"
        },
        {
            "name" : "Scene.001",
            "nodes" : [
                0,
                1,
                2
            ]
        }
    ],
    "nodes" : [
        {
            "mesh" : 0,
            "name" : "base"
        },
        {
            "mesh" : 1,
            "name" : "lights",
            "translation" : [
                2.336541175842285,
                0.012610412202775478,
                2.1132073402404785
            ]
        },
        {
            "mesh" : 2,
            "name" : "objects"
        }
    ],
    "materials" : [
        {
            "doubleSided" : true,
            "name" : "MAT_Dielectric.002",
            "pbrMetallicRoughness" : {
                "baseColorTexture" : {
                    "index" : 0
                },
                "metallicFactor" : 0
            }
        },
        {
            "doubleSided" : true,
            "name" : "MAT_blackPlastic.002",
            "pbrMetallicRoughness" : {
                "baseColorFactor" : [
                    0.049706585705280304,
                    0.04970657825469971,
                    0.04970657452940941,
                    1
                ],
                "metallicFactor" : 0,
                "roughnessFactor" : 0.6000000238418579
            }
        },
        {
            "doubleSided" : true,
            "emissiveFactor" : [
                1,
                1,
                1
            ],
            "name" : "MAT_whitePaint.002",
            "pbrMetallicRoughness" : {
                "metallicFactor" : 0
            }
        },
        {
            "doubleSided" : true,
            "emissiveFactor" : [
                0,
                0.4793202579021454,
                1
            ],
            "name" : "MAT_Blue.002",
            "pbrMetallicRoughness" : {
                "baseColorFactor" : [
                    0,
                    0.4793202579021454,
                    1,
                    1
                ],
                "metallicFactor" : 0
            }
        },
        {
            "doubleSided" : true,
            "name" : "Material.013",
            "pbrMetallicRoughness" : {
                "baseColorFactor" : [
                    0.4480000138282776,
                    0.38189709186553955,
                    0,
                    1
                ],
                "metallicFactor" : 0,
                "roughnessFactor" : 0.5
            }
        },
        {
            "doubleSided" : true,
            "name" : "Material.014",
            "pbrMetallicRoughness" : {
                "baseColorFactor" : [
                    0.4480000138282776,
                    0.005579501856118441,
                    0,
                    1
                ],
                "metallicFactor" : 0,
                "roughnessFactor" : 0.5
            }
        },
        {
            "doubleSided" : true,
            "name" : "Material.015",
            "pbrMetallicRoughness" : {
                "baseColorFactor" : [
                    0,
                    0.4480000138282776,
                    0.18288518488407135,
                    1
                ],
                "metallicFactor" : 0,
                "roughnessFactor" : 0.5
            }
        },
        {
            "doubleSided" : true,
            "name" : "Material.016",
            "pbrMetallicRoughness" : {
                "baseColorFactor" : [
                    0,
                    0.03988806903362274,
                    0.4480000138282776,
                    1
                ],
                "metallicFactor" : 0,
                "roughnessFactor" : 0.5
            }
        },
        {
            "doubleSided" : true,
            "name" : "Material.017",
            "pbrMetallicRoughness" : {
                "baseColorFactor" : [
                    0.5972022414207458,
                    0.5972020030021667,
                    0.5972021818161011,
                    1
                ],
                "metallicFactor" : 0,
                "roughnessFactor" : 0.5
            }
        }
    ],
    "meshes" : [
        {
            "name" : "large_white_cyclorama.004",
            "primitives" : [
                {
                    "attributes" : {
                        "POSITION" : 0,
                        "NORMAL" : 1,
                        "TEXCOORD_0" : 2
                    },
                    "indices" : 3,
                    "material" : 0
                }
            ]
        },
        {
            "name" : "Light2_top_softbox_50x50.003",
            "primitives" : [
                {
                    "attributes" : {
                        "POSITION" : 4,
                        "NORMAL" : 5,
                        "TEXCOORD_0" : 6
                    },
                    "indices" : 7,
                    "material" : 1
                },
                {
                    "attributes" : {
                        "POSITION" : 8,
                        "NORMAL" : 9,
                        "TEXCOORD_0" : 10
                    },
                    "indices" : 11,
                    "material" : 2
                },
                {
                    "attributes" : {
                        "POSITION" : 12,
                        "NORMAL" : 13,
                        "TEXCOORD_0" : 14
                    },
                    "indices" : 15,
                    "material" : 3
                }
            ]
        },
        {
            "name" : "large_white_cyclorama.005",
            "primitives" : [
                {
                    "attributes" : {
                        "POSITION" : 16,
                        "NORMAL" : 17,
                        "TEXCOORD_0" : 18
                    },
                    "indices" : 19,
                    "material" : 4
                },
                {
                    "attributes" : {
                        "POSITION" : 20,
                        "NORMAL" : 21,
                        "TEXCOORD_0" : 22
                    },
                    "indices" : 23,
                    "material" : 5
                },
                {
                    "attributes" : {
                        "POSITION" : 24,
                        "NORMAL" : 25,
                        "TEXCOORD_0" : 26
                    },
                    "indices" : 27,
                    "material" : 6
                },
                {
                    "attributes" : {
                        "POSITION" : 28,
                        "NORMAL" : 29,
                        "TEXCOORD_0" : 30
                    },
                    "indices" : 31,
                    "material" : 7
                },
                {
                    "attributes" : {
                        "POSITION" : 32,
                        "NORMAL" : 33,
                        "TEXCOORD_0" : 34
                    },
                    "indices" : 35,
                    "material" : 8
                }
            ]
        }
    ],
    "textures" : [
        {
            "sampler" : 0,
            "source" : 0
        }
    ],
    "images" : [
        {
            "mimeType" : "image/jpeg",
            "name" : "base_texture",
            "uri" : "base_texture.jpg"
        }
    ],
    "accessors" : [
        {
            "bufferView" : 0,
            "componentType" : 5126,
            "count" : 2802,
            "max" : [
                4.955106735229492,
                4.645111083984375,
                7.285913944244385
            ],
            "min" : [
                -3.881293296813965,
                -0.05322788655757904,
                -6.935123443603516
            ],
            "type" : "VEC3"
        },
        {
            "bufferView" : 1,
            "componentType" : 5126,
            "count" : 2802,
            "type" : "VEC3"
        },
        {
            "bufferView" : 2,
            "componentType" : 5126,
            "count" : 2802,
            "type" : "VEC2"
        },
        {
            "bufferView" : 3,
            "componentType" : 5123,
            "count" : 15252,
            "type" : "SCALAR"
        },
        {
            "bufferView" : 4,
            "componentType" : 5126,
            "count" : 18666,
            "max" : [
                0.2571825385093689,
                2.2572245597839355,
                0.4689334034919739
            ],
            "min" : [
                -0.6827446818351746,
                -0.0656970739364624,
                -4.785590648651123
            ],
            "type" : "VEC3"
        },
        {
            "bufferView" : 5,
            "componentType" : 5126,
            "count" : 18666,
            "type" : "VEC3"
        },
        {
            "bufferView" : 6,
            "componentType" : 5126,
            "count" : 18666,
            "type" : "VEC2"
        },
        {
            "bufferView" : 7,
            "componentType" : 5123,
            "count" : 72312,
            "type" : "SCALAR"
        },
        {
            "bufferView" : 8,
            "componentType" : 5126,
            "count" : 522,
            "max" : [
                -0.22701072692871094,
                2.202584981918335,
                0.07081431150436401
            ],
            "min" : [
                -0.6700364351272583,
                1.7175509929656982,
                -0.40651610493659973
            ],
            "type" : "VEC3"
        },
        {
            "bufferView" : 9,
            "componentType" : 5126,
            "count" : 522,
            "type" : "VEC3"
        },
        {
            "bufferView" : 10,
            "componentType" : 5126,
            "count" : 522,
            "type" : "VEC2"
        },
        {
            "bufferView" : 11,
            "componentType" : 5123,
            "count" : 2856,
            "type" : "SCALAR"
        },
        {
            "bufferView" : 12,
            "componentType" : 5126,
            "count" : 105,
            "max" : [
                0.02095644176006317,
                1.79476797580719,
                -3.947643995285034
            ],
            "min" : [
                -0.6317214965820312,
                0.9688564538955688,
                -4.453820705413818
            ],
            "type" : "VEC3"
        },
        {
            "bufferView" : 13,
            "componentType" : 5126,
            "count" : 105,
            "type" : "VEC3"
        },
        {
            "bufferView" : 14,
            "componentType" : 5126,
            "count" : 105,
            "type" : "VEC2"
        },
        {
            "bufferView" : 15,
            "componentType" : 5123,
            "count" : 552,
            "type" : "SCALAR"
        },
        {
            "bufferView" : 16,
            "componentType" : 5126,
            "count" : 676,
            "max" : [
                1.893028736114502,
                0.2673092484474182,
                1.503008246421814
            ],
            "min" : [
                0.6721273064613342,
                -0.05340734124183655,
                0.28210705518722534
            ],
            "type" : "VEC3"
        },
        {
            "bufferView" : 17,
            "componentType" : 5126,
            "count" : 676,
            "type" : "VEC3"
        },
        {
            "bufferView" : 18,
            "componentType" : 5126,
            "count" : 676,
            "type" : "VEC2"
        },
        {
            "bufferView" : 19,
            "componentType" : 5123,
            "count" : 3456,
            "type" : "SCALAR"
        },
        {
            "bufferView" : 20,
            "componentType" : 5126,
            "count" : 216,
            "max" : [
                0.2655458450317383,
                0.8077404499053955,
                1.8200666904449463
            ],
            "min" : [
                -0.658299446105957,
                -0.05333513021469116,
                0.8962358832359314
            ],
            "type" : "VEC3"
        },
        {
            "bufferView" : 21,
            "componentType" : 5126,
            "count" : 216,
            "type" : "VEC3"
        },
        {
            "bufferView" : 22,
            "componentType" : 5126,
            "count" : 216,
            "type" : "VEC2"
        },
        {
            "bufferView" : 23,
            "componentType" : 5123,
            "count" : 900,
            "type" : "SCALAR"
        },
        {
            "bufferView" : 24,
            "componentType" : 5126,
            "count" : 447,
            "max" : [
                -0.9955888986587524,
                0.9334536790847778,
                -0.3546905517578125
            ],
            "min" : [
                -2.12032413482666,
                -0.0534038245677948,
                -1.4269440174102783
            ],
            "type" : "VEC3"
        },
        {
            "bufferView" : 25,
            "componentType" : 5126,
            "count" : 447,
            "type" : "VEC3"
        },
        {
            "bufferView" : 26,
            "componentType" : 5126,
            "count" : 447,
            "type" : "VEC2"
        },
        {
            "bufferView" : 27,
            "componentType" : 5123,
            "count" : 2220,
            "type" : "SCALAR"
        },
        {
            "bufferView" : 28,
            "componentType" : 5126,
            "count" : 390,
            "max" : [
                2.085569381713867,
                0.8165690898895264,
                -0.39508160948753357
            ],
            "min" : [
                0.7330629229545593,
                -0.05348473787307739,
                -1.7177269458770752
            ],
            "type" : "VEC3"
        },
        {
            "bufferView" : 29,
            "componentType" : 5126,
            "count" : 390,
            "type" : "VEC3"
        },
        {
            "bufferView" : 30,
            "componentType" : 5126,
            "count" : 390,
            "type" : "VEC2"
        },
        {
            "bufferView" : 31,
            "componentType" : 5123,
            "count" : 1908,
            "type" : "SCALAR"
        },
        {
            "bufferView" : 32,
            "componentType" : 5126,
            "count" : 628,
            "max" : [
                -0.6609809398651123,
                0.7155736684799194,
                0.2943049669265747
            ],
            "min" : [
                -1.434105634689331,
                -0.05330786108970642,
                -0.47884926199913025
            ],
            "type" : "VEC3"
        },
        {
            "bufferView" : 33,
            "componentType" : 5126,
            "count" : 628,
            "type" : "VEC3"
        },
        {
            "bufferView" : 34,
            "componentType" : 5126,
            "count" : 628,
            "type" : "VEC2"
        },
        {
            "bufferView" : 35,
            "componentType" : 5123,
            "count" : 3312,
            "type" : "SCALAR"
        }
    ],
    "bufferViews" : [
        {
            "buffer" : 0,
            "byteLength" : 33624,
            "byteOffset" : 0
        },
        {
            "buffer" : 0,
            "byteLength" : 33624,
            "byteOffset" : 33624
        },
        {
            "buffer" : 0,
            "byteLength" : 22416,
            "byteOffset" : 67248
        },
        {
            "buffer" : 0,
            "byteLength" : 30504,
            "byteOffset" : 89664
        },
        {
            "buffer" : 0,
            "byteLength" : 223992,
            "byteOffset" : 120168
        },
        {
            "buffer" : 0,
            "byteLength" : 223992,
            "byteOffset" : 344160
        },
        {
            "buffer" : 0,
            "byteLength" : 149328,
            "byteOffset" : 568152
        },
        {
            "buffer" : 0,
            "byteLength" : 144624,
            "byteOffset" : 717480
        },
        {
            "buffer" : 0,
            "byteLength" : 6264,
            "byteOffset" : 862104
        },
        {
            "buffer" : 0,
            "byteLength" : 6264,
            "byteOffset" : 868368
        },
        {
            "buffer" : 0,
            "byteLength" : 4176,
            "byteOffset" : 874632
        },
        {
            "buffer" : 0,
            "byteLength" : 5712,
            "byteOffset" : 878808
        },
        {
            "buffer" : 0,
            "byteLength" : 1260,
            "byteOffset" : 884520
        },
        {
            "buffer" : 0,
            "byteLength" : 1260,
            "byteOffset" : 885780
        },
        {
            "buffer" : 0,
            "byteLength" : 840,
            "byteOffset" : 887040
        },
        {
            "buffer" : 0,
            "byteLength" : 1104,
            "byteOffset" : 887880
        },
        {
            "buffer" : 0,
            "byteLength" : 8112,
            "byteOffset" : 888984
        },
        {
            "buffer" : 0,
            "byteLength" : 8112,
            "byteOffset" : 897096
        },
        {
            "buffer" : 0,
            "byteLength" : 5408,
            "byteOffset" : 905208
        },
        {
            "buffer" : 0,
            "byteLength" : 6912,
            "byteOffset" : 910616
        },
        {
            "buffer" : 0,
            "byteLength" : 2592,
            "byteOffset" : 917528
        },
        {
            "buffer" : 0,
            "byteLength" : 2592,
            "byteOffset" : 920120
        },
        {
            "buffer" : 0,
            "byteLength" : 1728,
            "byteOffset" : 922712
        },
        {
            "buffer" : 0,
            "byteLength" : 1800,
            "byteOffset" : 924440
        },
        {
            "buffer" : 0,
            "byteLength" : 5364,
            "byteOffset" : 926240
        },
        {
            "buffer" : 0,
            "byteLength" : 5364,
            "byteOffset" : 931604
        },
        {
            "buffer" : 0,
            "byteLength" : 3576,
            "byteOffset" : 936968
        },
        {
            "buffer" : 0,
            "byteLength" : 4440,
            "byteOffset" : 940544
        },
        {
            "buffer" : 0,
            "byteLength" : 4680,
            "byteOffset" : 944984
        },
        {
            "buffer" : 0,
            "byteLength" : 4680,
            "byteOffset" : 949664
        },
        {
            "buffer" : 0,
            "byteLength" : 3120,
            "byteOffset" : 954344
        },
        {
            "buffer" : 0,
            "byteLength" : 3816,
            "byteOffset" : 957464
        },
        {
            "buffer" : 0,
            "byteLength" : 7536,
            "byteOffset" : 961280
        },
        {
            "buffer" : 0,
            "byteLength" : 7536,
            "byteOffset" : 968816
        },
        {
            "buffer" : 0,
            "byteLength" : 5024,
            "byteOffset" : 976352
        },
        {
            "buffer" : 0,
            "byteLength" : 6624,
            "byteOffset" : 981376
        }
    ],
    "samplers" : [
        {
            "magFilter" : 9729,
            "minFilter" : 9987
        }
    ],
    "buffers" : [
        {
            "byteLength" : 988000,
            "uri" : "scene.bin"
        }
    ]
}
